<?xml version="1.0" encoding="utf-8"?>
<!-- Generator: Adobe Illustrator 21.0.2, SVG Export Plug-In . SVG Version: 6.00 Build 0)  -->
<svg version="1.1" xmlns="http://www.w3.org/2000/svg" xmlns:xlink="http://www.w3.org/1999/xlink" x="0px" y="0px"
	 viewBox="0 0 24 24" style="enable-background:new 0 0 24 24;" xml:space="preserve">
<style type="text/css">
	.st0{fill:#FFFFFF;}
	.st1{fill:#CCE7FF;}
	.st2{fill:none;stroke:#1078FF;stroke-linecap:round;stroke-linejoin:round;stroke-miterlimit:10;}
	.st3{fill:none;stroke:#1078FF;stroke-linejoin:round;stroke-miterlimit:10;}
	.st4{fill:#1078FF;}
	.st5{fill:none;}
</style>
<g id="Duotone">
	<polygon class="st0" points="16.5,7.5 16.5,0.5 0.5,0.5 0.5,10.5 12.5,10.5 12.5,23.5 23.5,23.5 23.5,7.5 	"/>
	<rect x="12.5" y="21.5" class="st1" width="11" height="2"/>
	<polygon class="st1" points="0.5,4 0.5,0.5 4,0.5 	"/>
	<polygon class="st1" points="12.5,12.5 12.5,10.5 4,10.5 0.5,7 0.5,10.5 1.5,10.5 1.5,12.5 2.5,12.5 2.5,14.5 12.5,14.5 12.5,13.5 
		23.5,12 23.5,7.5 	"/>
	<polygon class="st1" points="16.5,4 16.5,0.5 13,0.5 	"/>
	<g>
		<g>
			<line class="st2" x1="0.5" y1="4" x2="4" y2="0.5"/>
			<line class="st2" x1="0.5" y1="7" x2="4" y2="10.5"/>
			<polyline class="st2" points="10.5,10.5 0.5,10.5 0.5,0.5 16.5,0.5 16.5,5.5 			"/>
			<line class="st2" x1="16.5" y1="4" x2="13" y2="0.5"/>
			<polyline class="st2" points="9.5,3.5 7.5,3.5 7,4.5 7.5,5.5 9.5,5.5 10,6.5 9.5,7.5 7.5,7.5 			"/>
			<line class="st2" x1="8.5" y1="3.5" x2="8.5" y2="2.5"/>
			<line class="st2" x1="8.5" y1="8.5" x2="8.5" y2="7.5"/>
		</g>
		<g>
			<rect x="12.5" y="7.5" class="st2" width="11" height="16"/>
			<line class="st2" x1="12.5" y1="13.5" x2="23.5" y2="12"/>
			<line class="st2" x1="21.5" y1="15.5" x2="20.5" y2="15.5"/>
			<line class="st2" x1="18.5" y1="15.5" x2="17.5" y2="15.5"/>
			<line class="st2" x1="15.5" y1="15.5" x2="14.5" y2="15.5"/>
			<line class="st2" x1="21.5" y1="17.5" x2="20.5" y2="17.5"/>
			<line class="st2" x1="18.5" y1="17.5" x2="17.5" y2="17.5"/>
			<line class="st2" x1="15.5" y1="17.5" x2="14.5" y2="17.5"/>
			<line class="st2" x1="21.5" y1="19.5" x2="20.5" y2="19.5"/>
			<line class="st2" x1="18.5" y1="19.5" x2="17.5" y2="19.5"/>
			<line class="st2" x1="15.5" y1="19.5" x2="14.5" y2="19.5"/>
			<line class="st2" x1="21.5" y1="21.5" x2="20.5" y2="21.5"/>
			<line class="st2" x1="18.5" y1="21.5" x2="17.5" y2="21.5"/>
			<line class="st2" x1="15.5" y1="21.5" x2="14.5" y2="21.5"/>
		</g>
		<line class="st2" x1="1.5" y1="12.5" x2="10.5" y2="12.5"/>
		<line class="st2" x1="2.5" y1="14.5" x2="10.5" y2="14.5"/>
	</g>
</g>
<g id="Frames-24px">
	<rect class="st5" width="24" height="24"/>
</g>
</svg>
