<?xml version="1.0" encoding="utf-8"?>
<!-- Generator: Adobe Illustrator 21.0.2, SVG Export Plug-In . SVG Version: 6.00 Build 0)  -->
<svg version="1.1" xmlns="http://www.w3.org/2000/svg" xmlns:xlink="http://www.w3.org/1999/xlink" x="0px" y="0px"
	 viewBox="0 0 24 24" style="enable-background:new 0 0 24 24;" xml:space="preserve">
<style type="text/css">
	.st0{fill:#CCE7FF;}
	.st1{fill:#FFFFFF;}
	.st2{fill:none;stroke:#1078FF;stroke-linecap:round;stroke-linejoin:round;stroke-miterlimit:10;}
	.st3{fill:none;stroke:#1078FF;stroke-linecap:round;stroke-miterlimit:10;}
	.st4{fill:none;}
</style>
<g id="Duotone">
	<polygon class="st1" points="21,6.5 18,6.5 15.5,1.5 10.5,1.5 8,4.5 4,4.5 0.5,10 4,14.5 20,14.5 22.5,11 	"/>
	<polygon class="st0" points="22.5,11 19.5,11 18,12 6,12 4,10 0.5,10 4,14.5 20,14.5 	"/>
	<line class="st2" x1="8.5" y1="14.5" x2="8.5" y2="23.5"/>
	<polyline class="st2" points="5.5,20.5 8.5,23.5 11.5,20.5 	"/>
	<line class="st2" x1="14.5" y1="19.5" x2="14.5" y2="10.5"/>
	<polyline class="st2" points="17.5,13.5 14.5,10.5 11.5,13.5 	"/>
	<g>
		<polyline class="st2" points="19.5,14.5 20,14.5 22.5,11 21,6.5 18,6.5 15.5,1.5 10.5,1.5 8,4.5 4,4.5 0.5,10 4,14.5 5.5,14.5 		
			"/>
		<line class="st2" x1="14.5" y1="6.5" x2="18" y2="6.5"/>
	</g>
</g>
<g id="Frames-24px">
	<rect class="st4" width="24" height="24"/>
</g>
</svg>
